# xmcd
#
# Track frame offsets:
#	150
#	15364
#	29619
#	43928
#	58965
#	73350
#	87876
#	101598
#	116815
#	132181
#	145619
#	160407
#	174598
#	189408
#	205794
#	220068
#	234085
#	249540
#	264772
#	279203
#
# Disc length: 3914 seconds
#
# Revision: 0
# Processed by: cddbd v1.5.2PL0 Copyright (c) Steve Scherf et al.
# Submitted via: EasyCDDAExtractor 16.0.6.1
#
DISCID=1b0f4814
DTITLE=Συλλογικός δίσκος - Τα ρεμπέτικα Β 1922-1937 12 Β
DYEAR=2010
DGENRE=Ρεμπέτικη
TTITLE0=Δελλιάς Ανέστης - Το σακκάκι [ζεϊμπ., Αν. Δελλιάς, Αθήνα 1936]
TTITLE1=Αμπατζή Ρίτα - Μέσα στο Πασαλιμάνι [αϊδίν., αργιλαμάς, Κ.Σκαρβέλης, Αθ
TTITLE1=1936]
TTITLE2=Βαμβακάρης Μάρκος-Ρούκουνας Κ.-Παγιουμτζής Σ. - Μαύρα μάτια, μαύρα φρύ
TTITLE2=δια [χασάπ., Μ. Βαμβακάρης, Αθ1936]
TTITLE3=Περπινιάδης Στελλάκης - Στου Λινάρδου την ταβέρνα [χασάπ., Παν.Τούντας
TTITLE3=, Αθ 1936ή37]
TTITLE4=Παγιουμτζής Στράτος-Περπινιάδης Στελλάκης - Μποέμης [ζεϊμπ., Δ. Σέμσης
TTITLE4=Σ. Παγιουμτζής, Αθ 3.1938]
TTITLE5=Εσκενάζυ Ρόζα - Πατρινιά [κιοτσ. καρσιλ., Ι. Πετρόπουλος, Αθήνα 10.193
TTITLE5=5]
TTITLE6=Ρούκουνας Κώστας ή Σαμιωτάκης - Δεν θέλω πια να μού μιλάς [χασάπ., Κ. 
TTITLE6=Ρούκουνας, Αθήνα 1938]
TTITLE7=Περπινιάδης Στελλάκης - Ο καϋμός της κυρα Κώσταινας [χαμπανέρα, Π.Τούν
TTITLE7=τας, Αθ1936]
TTITLE8=Καλυβόπουλος Αντώνης - Κατάδικος [ζεϊμπ., Γ. Εϊτζιρίδης, Αθήνα 1936]
TTITLE9=Εσκενάζυ Ρόζα - Γιαννάκης [χασάπ., Κ. Σκαρβέλης, Αθήνα 1936]
TTITLE10=Άνευ ερμηνευτού - Μπάλλος [διασκ. Κ. Σκαρβέλης, Αθήνα 1935]
TTITLE11=Ρούκουνας Κώστας ή Σαμιωτάκης - Σκλάβος σου θα γίνω [καλαμ., Γ. Καμβύ
TTITLE11=σης-Μ. Μάτσας, Αθ1936]
TTITLE12=Εσκενάζυ Ρόζα - Πάλι μού κάνεις το βαρύ [ζεϊμπ., Κ. Καρίπης-Κ. Μακρής
TTITLE12=, Αθ1936]
TTITLE13=Βαμβακάρης Μάρκος - Όσοι έχουνε πολλά λεφτά [ζεϊμπ. απτάλ. Μ.Βαμβακάρ
TTITLE13=ης, Αθ1936]
TTITLE14=Περπινιάδης Στελλάκης - Οι δύο χήρες [ζεϊμπ., Κ. Καρίπης-Κ. Μακρής, Α
TTITLE14=θ 12.1936]
TTITLE15=Ρούκουνας Κώστας ή Σαμιωτάκης - Κατινάκι μη θυμώνεις [ζεϊμπ., Κ. Ρούκ
TTITLE15=ουνας, Αθήνα 1936]
TTITLE16=Εσκενάζυ Ρόζα - Γκαζέλ νιχαβέντ (Έβγα ψυχή απ' το κορμί)[Αθήνα 1936]
TTITLE17=Περπινιάδης Στελλάκης - Η πεθερά μου [σέρβικο, χασάπ., Σ. Παντελίδης,
TTITLE17=Αθ 12.1936]
TTITLE18=Παγιουμτζής Στράτος - Μη κάνεις πια την έξυπνη [χασάπ., Δ.Σέμσης-Σ.Πα
TTITLE18=γιουμτζής,Αθ3.1938]
TTITLE19=Μηττάκη Γεωργία - Σ' ένα τεκέ σκαρώσαμε [ζεϊμπ. Β.Τσιτσάνης-Δ.Περδικό
TTITLE19=πουλος, Αθ1936]
EXTD=
EXTT0=
EXTT1=
EXTT2=
EXTT3=
EXTT4=
EXTT5=
EXTT6=
EXTT7=
EXTT8=
EXTT9=
EXTT10=
EXTT11=
EXTT12=
EXTT13=
EXTT14=
EXTT15=
EXTT16=
EXTT17=
EXTT18=
EXTT19=
PLAYORDER=
